<?xml version="1.0" encoding="utf-8"?>
<!-- Generator: Adobe Illustrator 16.0.0, SVG Export Plug-In . SVG Version: 6.00 Build 0)  -->
<!DOCTYPE svg PUBLIC "-//W3C//DTD SVG 1.1//EN" "http://www.w3.org/Graphics/SVG/1.1/DTD/svg11.dtd">
<svg version="1.1" id="Layer_1" xmlns="http://www.w3.org/2000/svg" xmlns:xlink="http://www.w3.org/1999/xlink" x="0px" y="0px"
	 width="120px" height="32px" viewBox="0 0 120 32" enable-background="new 0 0 120 32" xml:space="preserve">
<path fill="#FFFFFF" d="M71.646,18.34v10.941c0,0.645,0.84,0.527,1.367,0.527c0.254,0,0.526-0.234,0.526-0.527v-10.98L83.934,2.406
	c0.232-0.312,0.077-0.605-0.313-0.605h-1.211c-0.216,0-0.371,0.078-0.509,0.254l-9.276,14.566L63.502,2.055
	c-0.137-0.176-0.312-0.254-0.527-0.254h-1.19c-0.392,0-0.566,0.293-0.332,0.605L71.646,18.34z M43.534,29.281
	c0,0.293,0.254,0.527,0.508,0.527h0.84c0.293,0,0.566-0.216,0.566-0.527V2.327c0-0.292-0.254-0.526-0.508-0.526h-0.898
	c-0.254,0-0.508,0.234-0.508,0.526V29.281z M13.995,29.848c0.078,0.234,0.215,0.353,0.43,0.353h0.215
	c0.214,0,0.371-0.117,0.468-0.353L28.811,2.368c0.156-0.312,0-0.566-0.371-0.566h-1.035c-0.215,0-0.372,0.098-0.43,0.293
	L14.64,26.938h-0.098L2.324,2.094c-0.059-0.195-0.215-0.293-0.43-0.293H0.82c-0.371,0-0.488,0.215-0.332,0.526L13.995,29.848z"/>
<path fill="#FFFFFF" d="M106.005,2.152c-0.078-0.234-0.216-0.352-0.431-0.352h-0.215c-0.215,0-0.371,0.117-0.469,0.352
	L91.188,29.631c-0.154,0.314,0,0.568,0.371,0.568h1.035c0.215,0,0.372-0.098,0.432-0.293l12.334-24.844h0.098l12.219,24.844
	c0.059,0.195,0.215,0.293,0.43,0.293h1.074c0.371,0,0.488-0.215,0.332-0.527L106.005,2.152z"/>
<rect x="97" y="19.473" fill="#FFFFFF" width="17" height="1.799"/>
</svg>
